<svg width="468" height="354" viewBox="0 0 468 354" fill="none" xmlns="http://www.w3.org/2000/svg">
<path d="M200.154 2.55403C201.07 0.970158 202.728 0 204.518 0H449.292C453.203 0 455.648 4.3611 453.694 7.85176L260.852 352.38C259.945 354.001 258.266 355 256.45 355H5.08974C1.14561 355 -1.29516 350.572 0.725088 347.082L200.154 2.55403Z" fill="#034899"/>
<path d="M436.078 65.9431C436.99 64.3402 438.658 63.3555 440.462 63.3555H571.912C575.67 63.3555 578.128 67.4138 576.477 70.8924L442.966 352.065C442.114 353.861 440.342 355 438.402 355H280.453C276.526 355 274.083 350.606 276.069 347.116L436.078 65.9431Z" fill="#034899"/>
</svg>
